<?xml version="1.0" encoding="utf-8"?>
<!-- Generator: Adobe Illustrator 23.0.0, SVG Export Plug-In . SVG Version: 6.00 Build 0) -->
<svg version="1.1" xmlns="http://www.w3.org/2000/svg" xmlns:xlink="http://www.w3.org/1999/xlink" x="0px" y="0px" width="800px" height="800px" viewBox="0 0 800 800" style="enable-background:new 0 0 800 800;" xml:space="preserve">
	<style type="text/css">
		.st0 {
			opacity: 0.47;
			fill: url("#SVGID_1_");
		}
		.st1 {
			fill-rule: evenodd;
			clip-rule: evenodd;
		}
		.st2 {
			clip-path: url("#SVGID_3_");
		}
		.st3 {
			fill-rule: evenodd;
			clip-rule: evenodd;
			fill: #FFFFFF;
		}
		.st4 {
			display: none;
		}
		.st5 {
			display: inline;
		}
		.st6 {
			font-family: 'Exo-Bold';
		}
		.st7 {
			font-size: 144.3029px;
		}
		.st8 {
			letter-spacing: -2.972;
		}
	</style>
	<g id="object">

		<radialGradient id="SVGID_1_" cx="408.2104" cy="1268.2938" r="291.5811" gradientTransform="matrix(1.2392 -0.1618 0.004 0.0861 -110.9274 592.9606)" gradientUnits="userSpaceOnUse">
			<stop offset="0" style="stop-color:#505050"/>
			<stop offset="0.055" style="stop-color:#5E5E5E"/>
			<stop offset="0.2975" style="stop-color:#979797"/>
			<stop offset="0.5217" style="stop-color:#C4C4C4"/>
			<stop offset="0.7206" style="stop-color:#E4E4E4"/>
			<stop offset="0.8868" style="stop-color:#F8F8F8"/>
			<stop offset="1" style="stop-color:#FFFFFF"/>
		</radialGradient>

		<ellipse transform="matrix(0.7071 -0.7071 0.7071 0.7071 -101.4499 373.5307)" class="st1" cx="400.167" cy="309.226" rx="160.159" ry="160.159"/>
		<g>
			<defs>

				<ellipse id="SVGID_2_" transform="matrix(0.0892 -0.996 0.996 0.0892 55.4605 680.866)" cx="400" cy="310.109" rx="160.851" ry="160.851"/>
			</defs>
			<clipPath id="SVGID_3_">
				<use xlink:href="#SVGID_2_" style="overflow:visible;"/>
			</clipPath>
			<g class="st2">
				<g>
					<path
						class="st3"
						d="M401.285,203.624c0,0-29.735-3.962-29.908,44.434c0,0-9.347,7.588,4.236,18.417
						c0,0,3.497,24.196-1.888,27.086c-5.387,2.891-9.702,7.227-16.517,7.953c-6.811,0.724-19.633-22.384-48.696-13.342
						c0,0-12.838-18.412-34.363-12.265c0,0,0.975-30.151,14.255-35.574c0,0,8.333,14,30,9.667c0,0,7.285-8.14,2.667-19.333
						c0,0-41.999-29.158-55.708-4.234c0,0-35.218,26.02-41.415,55.997c0,0-23.781,34.681,32.826,41.518
						c0,0,9.631,21.052,48.658,24.538c0,0,9.053,26.377,19.345,38.364c10.293,11.985,26.284,31.317,26.284,31.317
						s-10.476,22.755,0.911,45.865c0,0,21.81,15.161,46.544,14.426L401.285,203.624z"/>
				</g>
			</g>
			<g class="st2">
				<g>
					<path
						class="st3"
						d="M396.509,203.625c0,0,29.791-3.884,29.824,44.512c0,0,9.339,7.613-4.296,18.406
						c0,0-3.571,24.187,1.813,27.091c5.388,2.905,9.696,7.252,16.52,7.997c6.819,0.742,19.727-22.332,48.808-13.213
						c0,0,12.91-18.378,34.45-12.174c0,0-0.89-30.154-14.175-35.612c0,0-8.387,13.978-30.072,9.587c0,0-7.272-8.159-2.614-19.34
						c0,0,42.144-29.047,55.803-4.087c0,0,35.196,26.113,41.316,56.106c0,0,23.717,34.744-32.995,41.431
						c0,0-9.706,21.027-48.801,24.409c0,0-9.142,26.354-19.484,38.313c-10.342,11.958-26.413,31.248-26.413,31.248
						s10.427,22.782-1.044,45.863c0,0-21.886,15.104-46.655,14.303L396.509,203.625z"/>
				</g>
			</g>
		</g>
	</g>
<g id="text">
	<text transform="matrix(1 -0.1381 0 1 178.0526 617.0823)" class="st4">
		<tspan x="0" y="0" class="st5 st6 st7 st8">F</tspan>
		<tspan x="66.526" y="0" class="st5 st6 st7">itness</tspan>
	</text>
	<g>
		<path d="M200.668,516.149l52.996-7.448v10.658l-40.295,5.663v32.703l37.229-5.232v10.512l-37.229,5.232v44.529l-12.701,1.785
			V516.149z"/>
		<path
			d="M279.846,512.625c0.145,4.358-3.066,8.314-8.176,9.032c-4.526,0.636-7.738-2.416-7.738-6.795
			c0-4.526,3.358-8.502,8.029-9.159C276.779,505.026,279.846,508.099,279.846,512.625z M265.537,605.153v-70.662l12.848-1.806
			v70.662L265.537,605.153z"/>
		<path
			d="M316.176,507.221v20.294l18.397-2.585v9.781l-18.397,2.586v38.105c0,8.76,2.482,13.374,9.637,12.368
			c3.357-0.472,5.84-1.258,7.445-1.921l0.584,9.553c-2.482,1.371-6.424,2.655-11.388,3.352c-5.985,0.841-10.804-0.379-13.87-3.452
			c-3.649-3.283-4.963-9.376-4.963-17.698v-38.543l-10.95,1.539v-9.781l10.95-1.539v-16.936L316.176,507.221z"/>
		<path
			d="M350.025,542.023c0-7.3-0.146-13.265-0.584-19.043l11.389-1.601l0.73,11.577l0.292-0.041
			c3.504-7.209,11.68-14.928,23.359-16.569c9.781-1.375,24.965,2.331,24.965,26.567v42.193l-12.848,1.806v-40.733
			c0-11.388-4.233-20.283-16.352-18.58c-8.467,1.19-15.037,8.1-17.227,15.562c-0.584,1.688-0.877,3.918-0.877,6.109v42.485
			l-12.848,1.806V542.023z"/>
		<path
			d="M436.209,548.171c0.292,17.333,11.388,22.927,24.235,21.121c9.198-1.293,14.745-3.678,19.564-6.399l2.19,8.891
			c-4.525,2.679-12.264,6.102-23.505,7.682c-21.753,3.057-34.747-9.423-34.747-30.74c0-21.315,12.556-39.869,33.141-42.762
			c23.068-3.242,29.199,16.19,29.199,29.183c0,2.628-0.291,4.713-0.438,6.047L436.209,548.171z M473.876,533.68
			c0.145-8.196-3.358-20.405-17.812-18.374c-12.994,1.826-18.687,14.597-19.709,23.647L473.876,533.68z"/>
		<path
			d="M499.447,558.998c3.797,1.949,10.512,3.633,16.936,2.73c9.344-1.313,13.725-6.601,13.725-12.441
			c0-6.132-3.65-8.976-13.141-11.146c-12.701-2.741-18.688-8.908-18.688-17.376c0-11.388,9.198-22.024,24.382-24.158
			c7.153-1.005,13.432,0.156,17.374,1.938l-3.213,9.795c-2.773-1.362-7.883-2.98-14.453-2.057
			c-7.592,1.067-11.826,6.042-11.826,11.298c0,5.84,4.234,7.873,13.432,10.084c12.264,2.948,18.542,8.198,18.542,18.71
			c0,12.409-9.636,22.523-26.425,24.883c-7.738,1.087-14.893,0.195-19.855-2.027L499.447,558.998z"/>
		<path
			d="M556.264,550.873c3.795,1.949,10.512,3.633,16.935,2.73c9.344-1.313,13.723-6.6,13.723-12.44
			c0-6.132-3.649-8.976-13.139-11.147c-12.702-2.741-18.688-8.908-18.688-17.376c0-11.388,9.197-22.024,24.381-24.158
			c7.154-1.005,13.432,0.156,17.373,1.938l-3.211,9.795c-2.774-1.362-7.885-2.98-14.454-2.056
			c-7.592,1.067-11.825,6.042-11.825,11.298c0,5.84,4.233,7.873,13.432,10.084c12.264,2.948,18.541,8.198,18.541,18.71
			c0,12.409-9.636,22.523-26.426,24.883c-7.737,1.087-14.891,0.195-19.856-2.027L556.264,550.873z"/>
	</g>
</g>
</svg>
