<?xml version="1.0" encoding="iso-8859-1"?>
<!-- Generator: Adobe Illustrator 19.0.0, SVG Export Plug-In . SVG Version: 6.00 Build 0)  -->
<svg version="1.1" id="Layer_1" xmlns="http://www.w3.org/2000/svg" xmlns:xlink="http://www.w3.org/1999/xlink" x="0px" y="0px"
	 viewBox="0 0 512 512" style="enable-background:new 0 0 512 512;" xml:space="preserve">
<g>
	<g>
		<path d="M501.333,250.613h-77.76l-25.387-55.36c-2.453-5.333-8.747-7.68-14.187-5.227c-2.88,1.28-5.013,3.84-5.867,6.827
			l-15.467,55.787l-20.16-116.267c-0.853-5.227-5.333-8.64-10.667-8.853c-5.227,0.107-9.707,4.053-10.347,9.28L305.92,252.32
			l-19.52-216c-0.533-5.547-5.12-9.707-10.667-9.707h-0.107c-5.547,0.107-10.133,4.373-10.56,10.027l-18.133,282.773L229.973,89.12
			c-0.427-5.547-5.013-9.813-10.56-9.92c-5.547,0-10.133,4.16-10.773,9.707l-19.093,200l-16.213-129.28
			c-0.747-5.867-6.08-10.027-11.84-9.28c-4.587,0.533-8.32,4.053-9.173,8.533L132.053,261.6l-15.36-48.32
			c-1.813-5.653-7.787-8.747-13.44-6.933c-2.453,0.747-4.48,2.347-5.76,4.48l-25.067,39.787h-61.76C4.8,250.613,0,255.413,0,261.28
			c0,5.867,4.8,10.667,10.667,10.667h67.627c3.627,0,7.04-1.92,9.067-5.013l16-25.387l21.227,65.707
			c1.813,5.653,7.787,8.747,13.333,6.933c3.733-1.173,6.507-4.267,7.253-8.213l15.36-78.08l19.947,159.68
			c0.64,5.333,5.227,9.387,10.56,9.387h0.107c5.44-0.107,9.92-4.267,10.453-9.6l16.213-170.24L236.8,475.467
			c0.427,5.547,5.12,9.92,10.667,9.92c5.653,0,10.24-4.373,10.56-10.027l19.307-300.267l16,173.227
			c0.533,5.44,5.013,9.6,10.453,9.707c5.547-0.427,10.027-3.84,10.773-9.28l18.987-140.48l16.427,94.613
			c0.853,4.907,5.013,8.533,10.027,8.853c5.013,0.32,9.493-2.987,10.773-7.787l20.373-73.28l16,34.987
			c1.707,3.84,5.547,6.187,9.707,6.187h84.48c5.867,0,10.667-4.8,10.667-10.667C512,255.307,507.2,250.613,501.333,250.613z"/>
	</g>
</g>
<g>
</g>
<g>
</g>
<g>
</g>
<g>
</g>
<g>
</g>
<g>
</g>
<g>
</g>
<g>
</g>
<g>
</g>
<g>
</g>
<g>
</g>
<g>
</g>
<g>
</g>
<g>
</g>
<g>
</g>
</svg>
